<svg width="63" height="64" viewBox="0 0 63 64" fill="none" xmlns="http://www.w3.org/2000/svg">
<g clip-path="url(#clip0_1_6)">
<path d="M31.5 51.2309C17.4734 51.2309 6.05958 39.7399 6.05958 25.6185C6.05958 11.4972 17.4673 0 31.5 0C45.5327 0 56.9404 11.491 56.9404 25.6123C56.9404 39.7337 45.5266 51.2247 31.5 51.2247V51.2309ZM31.5 1.35842C18.2094 1.35224 7.40275 12.2381 7.40275 25.6123C7.40275 38.9866 18.2155 49.8725 31.5 49.8725C44.7845 49.8725 55.5973 38.9928 55.5973 25.6123C55.5973 12.2319 44.7845 1.35224 31.5 1.35224V1.35842Z" fill="#8ABF54"/>
<path d="M34.217 51.0765C33.9778 51.0765 33.7447 50.9468 33.6221 50.7184C31.7576 47.2235 29.2553 44.2721 26.1825 41.9566C19.6814 37.0478 12.6098 36.5353 8.97897 36.6526C8.61098 36.6896 8.29819 36.3747 8.28592 35.9981C8.27366 35.6214 8.56192 35.3127 8.93604 35.3003C12.7509 35.1645 20.1659 35.7202 26.9921 40.876C30.2243 43.315 32.8493 46.4147 34.8119 50.0824C34.9898 50.4096 34.8671 50.8233 34.5359 51.0024C34.4317 51.058 34.3274 51.0827 34.217 51.0827V51.0765Z" fill="#8ABF54"/>
<path d="M40.3072 9.20637C40.2091 9.20637 40.111 9.18784 40.0128 9.13845C36.6028 7.48365 32.972 6.36604 29.2307 5.8165C25.3178 5.24226 21.3496 5.304 17.4489 5.99556C17.0809 6.06348 16.7313 5.8165 16.67 5.44602C16.6025 5.07554 16.8478 4.72359 17.2158 4.66184C21.2576 3.94559 25.3668 3.88384 29.4209 4.4766C33.297 5.04467 37.0567 6.19932 40.5894 7.91587C40.9267 8.07641 41.0616 8.48394 40.9022 8.81737C40.7856 9.05818 40.5464 9.20019 40.295 9.20019L40.3072 9.20637Z" fill="#8ABF54"/>
<path d="M32.0397 6.00174C31.8189 6.00174 31.6043 5.89059 31.4755 5.69301C31.2731 5.3781 31.3589 4.95823 31.6717 4.75446C33.1376 3.7974 34.7506 3.13054 36.4617 2.78476C38.2588 2.42045 40.0803 2.42045 41.8835 2.78476C42.2453 2.85885 42.4845 3.21698 42.4109 3.58128C42.3373 3.94559 41.9816 4.1864 41.6197 4.1123C39.9945 3.78505 38.3446 3.78505 36.7255 4.1123C35.1799 4.42721 33.7263 5.01997 32.4016 5.89059C32.2912 5.96469 32.1624 6.00174 32.0336 6.00174H32.0397Z" fill="#8ABF54"/>
<path d="M18.6019 46.7604C18.6019 46.7604 18.5406 46.7604 18.5161 46.7604C18.1481 46.7111 17.8905 46.3714 17.9334 46.001C18.1787 44.1115 18.7737 42.3456 19.6998 40.7402C21.969 36.807 25.5569 35.0472 27.4889 34.3433C27.8385 34.2136 28.2249 34.3988 28.3475 34.7508C28.4702 35.1028 28.2923 35.4918 27.9428 35.6152C26.1764 36.2512 22.9135 37.8566 20.8589 41.4132C20.0248 42.8643 19.4851 44.4635 19.2643 46.1739C19.2214 46.5135 18.9331 46.7604 18.5958 46.7604H18.6019Z" fill="#8ABF54"/>
<path d="M34.8548 50.2615C34.5053 50.2615 34.2047 49.9898 34.1863 49.6316C34.1005 48.3658 34.2845 47.0568 34.7015 45.8589C35.1431 44.6055 35.8546 43.4385 36.7684 42.4753C37.026 42.2036 37.4492 42.1974 37.719 42.4567C37.9889 42.7161 37.995 43.1421 37.7374 43.4138C36.9585 44.235 36.3452 45.2353 35.9649 46.3097C35.6031 47.3347 35.4498 48.4523 35.5234 49.539C35.5479 49.9095 35.2658 50.2368 34.8978 50.2615C34.8855 50.2615 34.8671 50.2615 34.8548 50.2615Z" fill="#8ABF54"/>
<path d="M47.9308 44.0436C47.618 44.0436 47.3359 43.8213 47.2684 43.4941C46.2687 38.3691 46.4588 33.0219 47.8204 28.0266C48.9796 23.7723 50.936 19.8329 53.6346 16.3195C53.8616 16.0232 54.2847 15.9676 54.5791 16.196C54.8735 16.4245 54.9287 16.8506 54.7018 17.1469C52.1136 20.5183 50.2369 24.2972 49.1206 28.3848C47.8142 33.1763 47.6303 38.3074 48.5932 43.2286C48.6668 43.5929 48.4276 43.951 48.0596 44.0251C48.0166 44.0313 47.9737 44.0374 47.9308 44.0374V44.0436Z" fill="#8ABF54"/>
<path d="M50.8072 40.6599C50.6662 40.6599 50.5251 40.6167 50.4086 40.5241L47.4095 38.2889C47.1089 38.0666 47.0476 37.6405 47.2684 37.3441C47.4892 37.0416 47.9124 36.9798 48.2068 37.2021L51.2059 39.4373C51.5064 39.6596 51.5678 40.0857 51.347 40.3882C51.212 40.5673 51.0096 40.6599 50.8072 40.6599Z" fill="#8ABF54"/>
<path d="M42.6563 26.2545C38.3262 26.2545 32.929 25.458 27.3601 22.6609C19.9083 18.9129 15.5292 13.3248 13.1679 9.29899C12.9778 8.97791 13.0882 8.56421 13.4071 8.37279C13.7261 8.18138 14.137 8.28635 14.3271 8.6136C16.5964 12.4851 20.8037 17.857 27.9612 21.4507C36.658 25.8223 44.9133 25.106 49.0593 24.291C49.4273 24.2169 49.7769 24.4577 49.8505 24.8282C49.9241 25.1925 49.6849 25.5506 49.3169 25.6247C47.6548 25.952 45.361 26.2669 42.6501 26.2669L42.6563 26.2545Z" fill="#8ABF54"/>
<path d="M9.00964 35.0472C8.79498 35.0472 8.58645 34.9484 8.45765 34.757C8.24299 34.4482 8.32272 34.0284 8.62938 33.8123C11.328 31.9228 14.2167 30.3174 17.2036 29.0331C29.0897 23.9452 40.6814 24.7911 48.311 26.3965C48.6729 26.4706 48.906 26.8349 48.8324 27.1992C48.7588 27.5635 48.403 27.7982 48.035 27.7241C40.5955 26.1557 29.2982 25.3283 17.731 30.2804C14.8239 31.5276 12.021 33.0898 9.39603 34.9237C9.2795 35.004 9.14457 35.0472 9.01577 35.0472H9.00964Z" fill="#8ABF54"/>
<path d="M44.7599 8.81119C46.3239 9.98437 47.0905 11.7935 46.9188 13.4607C45.3732 14.109 43.429 13.8867 41.8651 12.7074C40.3011 11.5342 39.5283 9.71269 39.7123 8.03936C41.2579 7.40338 43.2021 7.63184 44.7599 8.81119Z" fill="#8ABF54"/>
<path d="M43.613 29.3727C45.5266 28.9775 47.3788 29.6012 48.5012 30.8361C47.9553 32.4291 46.5017 33.7443 44.5882 34.1395C42.6746 34.5347 40.8102 33.9049 39.6878 32.6638C40.2398 31.0769 41.6995 29.7679 43.613 29.3727Z" fill="#8ABF54"/>
<path d="M38.4366 23.4636C37.0812 22.0496 36.6151 20.1355 37.0567 18.5239C38.6819 18.1349 40.5648 18.6721 41.9203 20.0922C43.2757 21.5062 43.7418 23.4327 43.2941 25.0505C41.6688 25.4271 39.7859 24.8837 38.4366 23.4698V23.4636Z" fill="#8ABF54"/>
<path d="M26.2071 9.9535C24.8516 8.53951 24.3855 6.62537 24.8271 5.0138C26.4524 4.62479 28.3353 5.16199 29.6907 6.58215C31.0461 7.99614 31.5123 9.92263 31.0645 11.5404C29.4393 11.917 27.5564 11.3737 26.2071 9.95967V9.9535Z" fill="#8ABF54"/>
<path d="M18.375 21.4939C16.5228 22.1052 14.6092 21.6976 13.3519 20.5986C13.7138 18.9561 15.014 17.4804 16.8662 16.8691C18.7185 16.2578 20.6443 16.6653 21.9016 17.7767C21.5336 19.413 20.2272 20.8826 18.375 21.4939Z" fill="#8ABF54"/>
<path d="M37.8662 38.931C39.1419 37.4491 40.9942 36.807 42.6317 37.1033C43.1653 38.6964 42.7973 40.6352 41.5216 42.1233C40.2459 43.6052 38.3876 44.2536 36.7377 43.951C36.2164 42.3518 36.5844 40.4191 37.8662 38.9372V38.931Z" fill="#8ABF54"/>
<path d="M28.5622 30.867C29.8379 29.385 31.6901 28.7429 33.3277 29.0393C33.8613 30.6323 33.4933 32.5711 32.2176 34.0592C30.9419 35.5411 29.0835 36.1895 27.4337 35.8869C26.9124 34.2877 27.2804 32.355 28.5622 30.8731V30.867Z" fill="#8ABF54"/>
<path d="M14.6399 26.2051C16.2959 27.2425 17.2158 28.9837 17.179 30.657C15.6948 31.435 13.7383 31.3733 12.0824 30.3359C10.4264 29.2986 9.50642 27.5512 9.54322 25.8655C11.0275 25.0999 12.9839 25.1616 14.6399 26.2051Z" fill="#8ABF54"/>
<path d="M10.7637 62.0735C10.5981 62.4563 10.3712 62.7898 10.0829 63.0738C9.79469 63.3578 9.45736 63.5801 9.07097 63.7468C8.68458 63.9135 8.27366 63.9938 7.84433 63.9938C7.41501 63.9938 6.96116 63.9012 6.55637 63.7221C6.15158 63.5431 5.79585 63.2837 5.49533 62.9503C5.20093 63.2837 4.85748 63.5431 4.44655 63.7221C4.04176 63.9074 3.61244 63.9938 3.15859 63.9938C2.70473 63.9938 2.31834 63.9135 1.93195 63.7468C1.54556 63.5801 1.20824 63.3517 0.919977 63.0738C0.631717 62.7898 0.40479 62.4563 0.239194 62.0735C0.0735983 61.6907 -0.0122662 61.277 -0.0122662 60.8324V56.5225C0.208528 56.5225 0.417056 56.5596 0.613318 56.6275C0.80958 56.7016 0.981309 56.8004 1.13464 56.9362C1.28797 57.0721 1.4045 57.2326 1.49036 57.424C1.57623 57.6093 1.61916 57.8192 1.61916 58.0538V60.8324C1.61916 61.0423 1.65596 61.2461 1.74182 61.4313C1.82155 61.6166 1.93195 61.7833 2.07301 61.9191C2.21408 62.055 2.37354 62.1661 2.56367 62.2464C2.74766 62.3267 2.95006 62.3699 3.15859 62.3699C3.36711 62.3699 3.56338 62.3328 3.74737 62.2464C3.93137 62.16 4.09083 62.055 4.23189 61.9191C4.37296 61.7833 4.48335 61.6228 4.56308 61.4313C4.64282 61.2461 4.68575 61.0423 4.68575 60.8324V56.5225C4.90654 56.5225 5.11507 56.5596 5.31133 56.6275C5.50759 56.7016 5.67932 56.8004 5.83265 56.9362C5.98598 57.0721 6.10251 57.2326 6.18838 57.424C6.27424 57.6093 6.31717 57.8192 6.31717 58.0538V60.8324C6.31717 61.0423 6.35397 61.2461 6.43984 61.4313C6.51957 61.6166 6.62997 61.7833 6.77103 61.9191C6.91209 62.055 7.07155 62.1661 7.26168 62.2464C7.44568 62.3267 7.64807 62.3699 7.8566 62.3699C8.06513 62.3699 8.26752 62.3328 8.45152 62.2464C8.63551 62.16 8.80111 62.055 8.94217 61.9191C9.08324 61.7833 9.19363 61.6228 9.27336 61.4313C9.3531 61.2461 9.39603 61.0423 9.39603 60.8324V58.0538C9.39603 57.8192 9.43896 57.6093 9.52483 57.424C9.61069 57.2388 9.72722 57.0782 9.88055 56.9362C10.0339 56.8004 10.2056 56.6954 10.4019 56.6275C10.5981 56.5596 10.8067 56.5225 11.0275 56.5225V60.8324C11.0275 61.277 10.9416 61.6907 10.776 62.0735H10.7637Z" fill="#8ABF54"/>
<path d="M15.8052 64C15.29 64 14.8116 63.9012 14.3578 63.6974C13.9039 63.4937 13.5114 63.222 13.1802 62.8762C12.849 62.5304 12.5853 62.1291 12.389 61.6722C12.1928 61.2091 12.0946 60.7213 12.0946 60.1964C12.0946 59.6716 12.1989 59.1467 12.4013 58.6775C12.6037 58.2144 12.8797 57.813 13.2231 57.4734C13.5666 57.1338 13.9591 56.8745 14.4068 56.6831C14.8546 56.4978 15.3207 56.4052 15.7991 56.4052H16.2345C16.7252 56.4052 17.1913 56.504 17.6268 56.7078C18.0622 56.9115 18.4425 57.1832 18.7737 57.529C19.0987 57.8748 19.3563 58.2761 19.5526 58.733C19.7427 59.1961 19.8408 59.6839 19.8408 60.1964C19.8408 60.7089 19.7488 61.172 19.571 61.6289C19.3931 62.092 19.1416 62.4934 18.8166 62.8392C18.4977 63.1911 18.1174 63.469 17.682 63.6789C17.2465 63.8889 16.7681 64 16.2591 64H15.8052ZM15.8359 58.0415C15.5415 58.0415 15.2716 58.0971 15.014 58.2144C14.7564 58.3317 14.5356 58.4861 14.3455 58.6836C14.1554 58.8812 14.002 59.1097 13.8916 59.369C13.7813 59.6284 13.7261 59.9062 13.7261 60.1964C13.7261 60.4866 13.7813 60.7707 13.8916 61.03C14.002 61.2955 14.1492 61.524 14.3455 61.7216C14.5356 61.9191 14.7626 62.0735 15.014 62.1908C15.2716 62.3081 15.5415 62.3637 15.8359 62.3637H16.1977C16.4798 62.3637 16.7436 62.3081 16.9889 62.1908C17.2342 62.0735 17.4489 61.9191 17.6268 61.7216C17.8046 61.524 17.9518 61.2955 18.0561 61.03C18.1603 60.7645 18.2155 60.4866 18.2155 60.1964C18.2155 59.9062 18.1603 59.6407 18.0561 59.3876C17.9518 59.1344 17.8046 58.8998 17.6206 58.7022C17.4366 58.5046 17.222 58.344 16.9705 58.2267C16.7252 58.1032 16.4676 58.0415 16.1977 58.0415H15.8359Z" fill="#8ABF54"/>
<path d="M24.3303 64C23.8151 64 23.3367 63.9012 22.8829 63.6974C22.429 63.4937 22.0365 63.222 21.7053 62.8762C21.3741 62.5304 21.1104 62.1291 20.9141 61.6722C20.7179 61.2091 20.6197 60.7213 20.6197 60.1964C20.6197 59.6716 20.724 59.1467 20.9264 58.6775C21.1288 58.2144 21.4048 57.813 21.7482 57.4734C22.0917 57.1338 22.4842 56.8745 22.932 56.6831C23.3797 56.4978 23.8458 56.4052 24.3242 56.4052H24.7596C25.2503 56.4052 25.7164 56.504 26.1519 56.7078C26.5873 56.9115 26.9676 57.1832 27.2988 57.529C27.6238 57.8748 27.8814 58.2761 28.0716 58.733C28.2617 59.1961 28.3598 59.6839 28.3598 60.1964C28.3598 60.7089 28.2678 61.172 28.09 61.6289C27.9121 62.092 27.6606 62.4934 27.3356 62.8392C27.0166 63.1911 26.6364 63.469 26.2009 63.6789C25.7655 63.8889 25.2871 64 24.778 64H24.3242H24.3303ZM24.361 58.0415C24.0666 58.0415 23.7967 58.0971 23.5391 58.2144C23.2815 58.3317 23.0607 58.4861 22.8706 58.6836C22.6805 58.8812 22.5272 59.1097 22.4168 59.369C22.3064 59.6284 22.2512 59.9062 22.2512 60.1964C22.2512 60.4866 22.3064 60.7707 22.4168 61.03C22.5272 61.2955 22.6744 61.524 22.8706 61.7216C23.0607 61.9191 23.2877 62.0735 23.5391 62.1908C23.7967 62.3081 24.0666 62.3637 24.361 62.3637H24.7228C25.005 62.3637 25.2687 62.3081 25.514 62.1908C25.7593 62.0735 25.974 61.9191 26.1519 61.7216C26.3297 61.524 26.4769 61.2955 26.5812 61.03C26.6855 60.7645 26.7407 60.4866 26.7407 60.1964C26.7407 59.9062 26.6855 59.6407 26.5812 59.3876C26.4769 59.1344 26.3297 58.8998 26.1457 58.7022C25.9617 58.5046 25.7471 58.344 25.4956 58.2267C25.2503 58.1032 24.9927 58.0415 24.7228 58.0415H24.361Z" fill="#8ABF54"/>
<path d="M32.8125 63.8765C32.3096 63.8765 31.8373 63.7777 31.3896 63.5863C30.9419 63.3949 30.5555 63.1294 30.2243 62.7959C29.8931 62.4625 29.6294 62.0673 29.4392 61.6228C29.2491 61.172 29.151 60.6966 29.151 60.1903C29.151 59.6839 29.2491 59.2085 29.4392 58.7639C29.6294 58.3193 29.8931 57.9303 30.2243 57.5969C30.5555 57.2635 30.948 56.998 31.3896 56.8066C31.8373 56.6151 32.3096 56.5164 32.8125 56.5164H34.4255C34.4255 56.5164 34.4133 56.4423 34.4194 56.2879C34.4255 56.1335 34.4255 55.9668 34.4255 55.7877V55.0468C34.4255 54.8245 34.4685 54.6269 34.5605 54.4479C34.6524 54.2688 34.769 54.1206 34.9223 54.0033C35.0756 53.8798 35.2474 53.7872 35.4436 53.7316C35.6399 53.6698 35.8423 53.639 36.0508 53.639V63.8765H32.8125ZM34.4255 58.1588H32.8125C32.5304 58.1588 32.2666 58.2144 32.0213 58.3193C31.776 58.4243 31.5613 58.5725 31.3712 58.7516C31.1872 58.9306 31.04 59.1467 30.9357 59.3937C30.8315 59.6407 30.7763 59.9062 30.7763 60.1903C30.7763 60.4743 30.8315 60.7398 30.9357 60.9868C31.04 61.2338 31.1872 61.4499 31.3712 61.6413C31.5552 61.8327 31.776 61.9747 32.0213 62.0797C32.2666 62.1847 32.5304 62.2402 32.8125 62.2402H34.4255V58.1588Z" fill="#8ABF54"/>
<path d="M37.5841 63.8765V53.6266C37.8049 53.6266 38.0134 53.6637 38.2097 53.7316C38.406 53.8057 38.5777 53.9045 38.731 54.0342C38.8782 54.1638 39.0009 54.3244 39.0867 54.5096C39.1726 54.6948 39.2155 54.9048 39.2155 55.1394V63.8765H37.5902H37.5841Z" fill="#8ABF54"/>
<path d="M47.2439 62.3699C47.1519 62.7527 47.0047 63.0491 46.7961 63.2714C46.5876 63.4937 46.3239 63.6542 46.005 63.7407C45.686 63.8333 45.2996 63.8765 44.8458 63.8765H42.5888C42.4477 63.8765 42.2515 63.8456 42.0061 63.7839C41.7608 63.7221 41.5155 63.611 41.2824 63.4443C41.0432 63.2776 40.8408 63.0491 40.663 62.7527C40.4851 62.4563 40.3992 62.0797 40.3992 61.6166C40.3992 61.3017 40.4544 61.0176 40.5648 60.7521C40.6752 60.4866 40.8286 60.2582 41.0248 60.0668C41.2211 59.8753 41.4541 59.7272 41.7179 59.616C41.9816 59.5049 42.276 59.4555 42.5826 59.4555H45.6431C45.6431 59.1035 45.5695 58.8318 45.4223 58.6528C45.2751 58.4675 45.1034 58.344 44.901 58.2638C44.6986 58.1897 44.4962 58.1464 44.2938 58.1464H42.4171C42.1472 58.1464 41.9141 58.0971 41.724 58.0044C41.5339 57.9056 41.3744 57.7821 41.2395 57.6216C41.1107 57.4672 41.0126 57.2882 40.9512 57.0906C40.8899 56.893 40.8592 56.7016 40.8592 56.504H44.0853C44.6679 56.504 45.1647 56.5657 45.5818 56.6892C45.9988 56.8127 46.3423 57.0103 46.606 57.2882C46.8697 57.566 47.066 57.9303 47.1887 58.3811C47.3113 58.8318 47.3665 59.3814 47.3665 60.0235V60.9065C47.3665 61.4931 47.3236 61.9747 47.2316 62.3514L47.2439 62.3699ZM42.601 60.9065C42.3987 60.9065 42.2515 60.9806 42.1533 61.1288C42.0552 61.277 42.0061 61.4375 42.0061 61.6042C42.0061 61.7648 42.0552 61.9191 42.1533 62.0673C42.2515 62.2155 42.4109 62.2896 42.6317 62.2896H44.9746C45.226 62.2896 45.4039 62.2217 45.5143 62.0859C45.6247 61.95 45.6799 61.7648 45.6799 61.5301V60.9065H42.601Z" fill="#8ABF54"/>
<path d="M53.8616 63.469C53.5426 63.1973 53.3893 62.8206 53.3893 62.3452V59.7086C53.3893 59.4987 53.3464 59.2949 53.2666 59.1097C53.1869 58.9245 53.0765 58.7577 52.9416 58.6157C52.8067 58.4737 52.6472 58.3626 52.4693 58.2823C52.2915 58.202 52.0952 58.1588 51.8805 58.1588C51.6659 58.1588 51.4696 58.202 51.2856 58.2823C51.1016 58.3626 50.936 58.4737 50.7888 58.6157C50.6416 58.7577 50.5312 58.9245 50.4515 59.1097C50.3718 59.2949 50.3288 59.4987 50.3288 59.7086V63.8765H48.7036V59.7086C48.7036 59.2764 48.7894 58.8627 48.955 58.4737C49.1206 58.0847 49.3475 57.7451 49.6419 57.4549C49.9363 57.1647 50.2675 56.9362 50.6539 56.7695C51.0342 56.6028 51.4451 56.5163 51.8867 56.5163C52.3283 56.5163 52.7269 56.6028 53.1072 56.7695C53.4874 56.9362 53.8186 57.1647 54.1008 57.4549C54.3829 57.7451 54.6037 58.0847 54.7693 58.4737C54.9349 58.8627 55.0207 59.2764 55.0207 59.7086V63.8765C54.5669 63.8765 54.1866 63.7407 53.8677 63.469H53.8616Z" fill="#8ABF54"/>
<path d="M59.7555 63.8765C59.2526 63.8765 58.7804 63.7777 58.3326 63.5863C57.8849 63.3949 57.4985 63.1294 57.1673 62.7959C56.8361 62.4625 56.5724 62.0673 56.3823 61.6228C56.1922 61.172 56.094 60.6966 56.094 60.1903C56.094 59.6839 56.1922 59.2085 56.3823 58.7639C56.5724 58.3193 56.8361 57.9303 57.1673 57.5969C57.4985 57.2635 57.8911 56.998 58.3326 56.8066C58.7804 56.6151 59.2526 56.5164 59.7555 56.5164H61.3686C61.3686 56.5164 61.3563 56.4423 61.3624 56.2879C61.3686 56.1335 61.3686 55.9668 61.3686 55.7877V55.0468C61.3686 54.8245 61.4115 54.6269 61.5035 54.4479C61.5955 54.2688 61.712 54.1206 61.8654 54.0033C62.0187 53.8798 62.1904 53.7872 62.3867 53.7316C62.5829 53.6698 62.7853 53.639 62.9939 53.639V63.8765H59.7555ZM61.3686 58.1588H59.7555C59.4734 58.1588 59.2097 58.2144 58.9644 58.3193C58.719 58.4243 58.5044 58.5725 58.3142 58.7516C58.1302 58.9306 57.9831 59.1467 57.8788 59.3937C57.7745 59.6407 57.7193 59.9062 57.7193 60.1903C57.7193 60.4743 57.7745 60.7398 57.8788 60.9868C57.9831 61.2338 58.1302 61.4499 58.3142 61.6413C58.4982 61.8327 58.719 61.9747 58.9644 62.0797C59.2097 62.1847 59.4734 62.2402 59.7555 62.2402H61.3686V58.1588Z" fill="#8ABF54"/>
</g>
<defs>
<clipPath id="clip0_1_6">
<rect width="63" height="64" fill="white"/>
</clipPath>
</defs>
</svg>
