<svg width="63" height="64" viewBox="0 0 63 64" fill="none" xmlns="http://www.w3.org/2000/svg">
<g clip-path="url(#clip0_8_4581)">
<path d="M31.5 51.2309C17.4734 51.2309 6.05957 39.7399 6.05957 25.6185C6.05957 11.4972 17.4673 0 31.5 0C45.5327 0 56.9404 11.491 56.9404 25.6123C56.9404 39.7337 45.5266 51.2247 31.5 51.2247V51.2309ZM31.5 1.35842C18.2094 1.35224 7.40274 12.2381 7.40274 25.6123C7.40274 38.9866 18.2155 49.8725 31.5 49.8725C44.7845 49.8725 55.5972 38.9928 55.5972 25.6123C55.5972 12.2319 44.7845 1.35224 31.5 1.35224V1.35842Z" fill="#F0F0F0"/>
<path d="M34.2171 51.0765C33.9779 51.0765 33.7448 50.9468 33.6222 50.7184C31.7577 47.2235 29.2554 44.2721 26.1826 41.9566C19.6815 37.0478 12.6099 36.5353 8.97907 36.6526C8.61108 36.6896 8.29829 36.3747 8.28602 35.9981C8.27376 35.6214 8.56201 35.3127 8.93614 35.3003C12.751 35.1645 20.166 35.7202 26.9922 40.876C30.2244 43.315 32.8494 46.4147 34.812 50.0824C34.9899 50.4096 34.8672 50.8233 34.536 51.0024C34.4318 51.058 34.3275 51.0827 34.2171 51.0827V51.0765Z" fill="#F0F0F0"/>
<path d="M40.3071 9.20637C40.209 9.20637 40.1109 9.18784 40.0127 9.13845C36.6027 7.48365 32.9718 6.36604 29.2306 5.8165C25.3176 5.24226 21.3495 5.304 17.4488 5.99556C17.0808 6.06348 16.7312 5.8165 16.6699 5.44602C16.6024 5.07554 16.8477 4.72359 17.2157 4.66184C21.2575 3.94559 25.3667 3.88384 29.4207 4.4766C33.2969 5.04467 37.0565 6.19932 40.5892 7.91587C40.9266 8.07641 41.0615 8.48394 40.902 8.81737C40.7855 9.05818 40.5463 9.20019 40.2949 9.20019L40.3071 9.20637Z" fill="#F0F0F0"/>
<path d="M32.0396 6.00174C31.8188 6.00174 31.6042 5.89059 31.4754 5.69301C31.273 5.3781 31.3588 4.95823 31.6716 4.75446C33.1375 3.7974 34.7505 3.13054 36.4616 2.78476C38.2587 2.42045 40.0802 2.42045 41.8834 2.78476C42.2452 2.85885 42.4844 3.21698 42.4108 3.58128C42.3372 3.94559 41.9815 4.1864 41.6196 4.1123C39.9943 3.78505 38.3445 3.78505 36.7254 4.1123C35.1798 4.42721 33.7262 5.01997 32.4015 5.89059C32.2911 5.96469 32.1623 6.00174 32.0335 6.00174H32.0396Z" fill="#F0F0F0"/>
<path d="M18.6019 46.7604C18.6019 46.7604 18.5406 46.7604 18.516 46.7604C18.148 46.7111 17.8905 46.3714 17.9334 46.001C18.1787 44.1115 18.7736 42.3456 19.6997 40.7402C21.969 36.807 25.5569 35.0472 27.4889 34.3433C27.8385 34.2136 28.2249 34.3988 28.3475 34.7508C28.4702 35.1028 28.2923 35.4918 27.9427 35.6152C26.1764 36.2512 22.9135 37.8566 20.8589 41.4132C20.0248 42.8643 19.4851 44.4635 19.2643 46.1739C19.2213 46.5135 18.9331 46.7604 18.5958 46.7604H18.6019Z" fill="#F0F0F0"/>
<path d="M34.8549 50.2615C34.5053 50.2615 34.2048 49.9898 34.1864 49.6316C34.1005 48.3658 34.2845 47.0568 34.7016 45.8589C35.1432 44.6055 35.8546 43.4385 36.7685 42.4753C37.0261 42.2036 37.4493 42.1974 37.7191 42.4567C37.989 42.7161 37.9951 43.1421 37.7375 43.4138C36.9586 44.235 36.3453 45.2353 35.965 46.3097C35.6032 47.3347 35.4498 48.4523 35.5234 49.539C35.548 49.9095 35.2659 50.2368 34.8979 50.2615C34.8856 50.2615 34.8672 50.2615 34.8549 50.2615Z" fill="#F0F0F0"/>
<path d="M47.9307 44.0436C47.6179 44.0436 47.3358 43.8213 47.2683 43.4941C46.2686 38.3691 46.4587 33.0219 47.8203 28.0266C48.9795 23.7723 50.9359 19.8329 53.6345 16.3195C53.8615 16.0232 54.2847 15.9676 54.5791 16.196C54.8734 16.4245 54.9286 16.8506 54.7017 17.1469C52.1135 20.5183 50.2368 24.2972 49.1205 28.3848C47.8142 33.1763 47.6302 38.3074 48.5931 43.2286C48.6667 43.5929 48.4275 43.951 48.0595 44.0251C48.0166 44.0313 47.9736 44.0374 47.9307 44.0374V44.0436Z" fill="#F0F0F0"/>
<path d="M50.8071 40.6599C50.6661 40.6599 50.525 40.6167 50.4085 40.5241L47.4093 38.2889C47.1088 38.0666 47.0475 37.6405 47.2683 37.3441C47.4891 37.0416 47.9123 36.9798 48.2067 37.2021L51.2058 39.4373C51.5063 39.6596 51.5676 40.0857 51.3468 40.3882C51.2119 40.5673 51.0095 40.6599 50.8071 40.6599Z" fill="#F0F0F0"/>
<path d="M42.6561 26.2545C38.3261 26.2545 32.9289 25.458 27.36 22.6609C19.9082 18.9129 15.5291 13.3248 13.1678 9.29899C12.9777 8.97791 13.0881 8.56421 13.407 8.37279C13.7259 8.18138 14.1369 8.28635 14.327 8.6136C16.5963 12.4851 20.8036 17.857 27.9611 21.4507C36.6579 25.8223 44.9132 25.106 49.0592 24.291C49.4272 24.2169 49.7768 24.4577 49.8504 24.8282C49.924 25.1925 49.6848 25.5506 49.3168 25.6247C47.6547 25.952 45.3609 26.2669 42.65 26.2669L42.6561 26.2545Z" fill="#F0F0F0"/>
<path d="M9.00954 35.0472C8.79488 35.0472 8.58635 34.9484 8.45756 34.757C8.24289 34.4482 8.32263 34.0284 8.62928 33.8123C11.3279 31.9228 14.2166 30.3174 17.2035 29.0331C29.0896 23.9452 40.6813 24.7911 48.3109 26.3965C48.6728 26.4706 48.9059 26.8349 48.8323 27.1992C48.7587 27.5635 48.4029 27.7982 48.035 27.7241C40.5954 26.1557 29.2981 25.3283 17.7309 30.2804C14.8238 31.5276 12.0209 33.0898 9.39593 34.9237C9.2794 35.004 9.14447 35.0472 9.01568 35.0472H9.00954Z" fill="#F0F0F0"/>
<path d="M44.7598 8.81119C46.3238 9.98437 47.0904 11.7935 46.9187 13.4607C45.3732 14.109 43.4289 13.8867 41.865 12.7074C40.301 11.5342 39.5282 9.71269 39.7122 8.03936C41.2578 7.40338 43.202 7.63184 44.7598 8.81119Z" fill="#F0F0F0"/>
<path d="M43.613 29.3727C45.5265 28.9775 47.3788 29.6012 48.5011 30.8361C47.9553 32.4291 46.5017 33.7443 44.5882 34.1395C42.6746 34.5347 40.8101 33.9049 39.6877 32.6638C40.2397 31.0769 41.6994 29.7679 43.613 29.3727Z" fill="#F0F0F0"/>
<path d="M38.4366 23.4636C37.0812 22.0496 36.6151 20.1355 37.0566 18.5239C38.6819 18.1349 40.5648 18.6721 41.9203 20.0922C43.2757 21.5062 43.7418 23.4327 43.2941 25.0505C41.6688 25.4271 39.7859 24.8837 38.4366 23.4698V23.4636Z" fill="#F0F0F0"/>
<path d="M26.2071 9.9535C24.8517 8.53951 24.3856 6.62537 24.8272 5.0138C26.4524 4.62479 28.3353 5.16199 29.6908 6.58215C31.0462 7.99614 31.5123 9.92263 31.0646 11.5404C29.4393 11.917 27.5564 11.3737 26.2071 9.95967V9.9535Z" fill="#F0F0F0"/>
<path d="M18.3749 21.4939C16.5227 22.1052 14.6091 21.6976 13.3518 20.5986C13.7137 18.9561 15.0139 17.4804 16.8661 16.8691C18.7183 16.2578 20.6442 16.6653 21.9015 17.7767C21.5335 19.413 20.2271 20.8826 18.3749 21.4939Z" fill="#F0F0F0"/>
<path d="M37.8661 38.931C39.1418 37.4491 40.994 36.8069 42.6316 37.1033C43.1652 38.6964 42.7972 40.6352 41.5215 42.1233C40.2458 43.6052 38.3874 44.2535 36.7376 43.951C36.2163 42.3518 36.5843 40.4191 37.8661 38.9372V38.931Z" fill="#F0F0F0"/>
<path d="M28.5622 30.867C29.8379 29.385 31.6901 28.7429 33.3276 29.0393C33.8612 30.6323 33.4932 32.5712 32.2175 34.0592C30.9418 35.5411 29.0835 36.1895 27.4337 35.8869C26.9123 34.2877 27.2803 32.355 28.5622 30.8731V30.867Z" fill="#F0F0F0"/>
<path d="M14.64 26.2051C16.2959 27.2425 17.2159 28.9837 17.1791 30.657C15.6949 31.435 13.7384 31.3733 12.0824 30.3359C10.4265 29.2986 9.5065 27.5512 9.5433 25.8655C11.0275 25.0999 12.984 25.1616 14.64 26.2051Z" fill="#F0F0F0"/>
<path d="M10.7638 62.0735C10.5982 62.4563 10.3713 62.7898 10.083 63.0738C9.79474 63.3578 9.45742 63.5801 9.07103 63.7468C8.68464 63.9136 8.27372 63.9938 7.84439 63.9938C7.41507 63.9938 6.96122 63.9012 6.55643 63.7221C6.15164 63.5431 5.79591 63.2837 5.49539 62.9503C5.20099 63.2837 4.85754 63.5431 4.44661 63.7221C4.04182 63.9074 3.6125 63.9938 3.15865 63.9938C2.70479 63.9938 2.3184 63.9136 1.93201 63.7468C1.54562 63.5801 1.2083 63.3517 0.920036 63.0738C0.631777 62.7898 0.404849 62.4563 0.239253 62.0735C0.0736574 61.6907 -0.012207 61.277 -0.012207 60.8324V56.5225C0.208587 56.5225 0.417115 56.5596 0.613377 56.6275C0.809639 56.7016 0.981368 56.8004 1.1347 56.9362C1.28803 57.0721 1.40456 57.2326 1.49042 57.424C1.57629 57.6093 1.61922 57.8192 1.61922 58.0538V60.8324C1.61922 61.0424 1.65602 61.2461 1.74188 61.4314C1.82161 61.6166 1.93201 61.7833 2.07307 61.9191C2.21414 62.055 2.3736 62.1661 2.56373 62.2464C2.74772 62.3267 2.95012 62.3699 3.15865 62.3699C3.36717 62.3699 3.56344 62.3328 3.74743 62.2464C3.93143 62.16 4.09089 62.055 4.23195 61.9191C4.37301 61.7833 4.48341 61.6228 4.56314 61.4314C4.64287 61.2461 4.68581 61.0424 4.68581 60.8324V56.5225C4.9066 56.5225 5.11513 56.5596 5.31139 56.6275C5.50765 56.7016 5.67938 56.8004 5.83271 56.9362C5.98604 57.0721 6.10257 57.2326 6.18844 57.424C6.2743 57.6093 6.31723 57.8192 6.31723 58.0538V60.8324C6.31723 61.0424 6.35403 61.2461 6.4399 61.4314C6.51963 61.6166 6.63002 61.7833 6.77109 61.9191C6.91215 62.055 7.07161 62.1661 7.26174 62.2464C7.44574 62.3267 7.64813 62.3699 7.85666 62.3699C8.06519 62.3699 8.26758 62.3328 8.45158 62.2464C8.63557 62.16 8.80117 62.055 8.94223 61.9191C9.08329 61.7833 9.19369 61.6228 9.27342 61.4314C9.35316 61.2461 9.39609 61.0424 9.39609 60.8324V58.0538C9.39609 57.8192 9.43902 57.6093 9.52488 57.424C9.61075 57.2388 9.72728 57.0782 9.88061 56.9362C10.0339 56.8004 10.2057 56.6954 10.4019 56.6275C10.5982 56.5596 10.8067 56.5225 11.0275 56.5225V60.8324C11.0275 61.277 10.9416 61.6907 10.7761 62.0735H10.7638Z" fill="#F0F0F0"/>
<path d="M15.8053 64C15.2901 64 14.8117 63.9012 14.3579 63.6974C13.904 63.4937 13.5115 63.222 13.1803 62.8762C12.8491 62.5304 12.5854 62.1291 12.3891 61.6722C12.1929 61.2091 12.0947 60.7213 12.0947 60.1964C12.0947 59.6716 12.199 59.1467 12.4014 58.6775C12.6038 58.2144 12.8798 57.813 13.2232 57.4734C13.5667 57.1338 13.9592 56.8745 14.4069 56.6831C14.8547 56.4978 15.3208 56.4052 15.7992 56.4052H16.2346C16.7253 56.4052 17.1914 56.504 17.6269 56.7078C18.0623 56.9115 18.4426 57.1832 18.7738 57.529C19.0988 57.8748 19.3564 58.2761 19.5527 58.733C19.7428 59.1961 19.8409 59.6839 19.8409 60.1964C19.8409 60.7089 19.7489 61.172 19.5711 61.6289C19.3932 62.092 19.1417 62.4934 18.8167 62.8392C18.4978 63.1911 18.1175 63.469 17.6821 63.6789C17.2466 63.8889 16.7682 64 16.2592 64H15.8053ZM15.836 58.0415C15.5416 58.0415 15.2717 58.0971 15.0141 58.2144C14.7565 58.3317 14.5357 58.4861 14.3456 58.6836C14.1555 58.8812 14.0021 59.1097 13.8917 59.369C13.7814 59.6284 13.7262 59.9062 13.7262 60.1964C13.7262 60.4866 13.7814 60.7707 13.8917 61.03C14.0021 61.2955 14.1493 61.524 14.3456 61.7216C14.5357 61.9191 14.7627 62.0735 15.0141 62.1908C15.2717 62.3082 15.5416 62.3637 15.836 62.3637H16.1978C16.4799 62.3637 16.7437 62.3082 16.989 62.1908C17.2343 62.0735 17.449 61.9191 17.6269 61.7216C17.8047 61.524 17.9519 61.2955 18.0562 61.03C18.1604 60.7645 18.2156 60.4866 18.2156 60.1964C18.2156 59.9062 18.1604 59.6407 18.0562 59.3876C17.9519 59.1344 17.8047 58.8998 17.6207 58.7022C17.4367 58.5046 17.2221 58.344 16.9706 58.2267C16.7253 58.1032 16.4677 58.0415 16.1978 58.0415H15.836Z" fill="#F0F0F0"/>
<path d="M24.3304 64C23.8153 64 23.3369 63.9012 22.883 63.6974C22.4292 63.4937 22.0366 63.222 21.7054 62.8762C21.3743 62.5304 21.1105 62.1291 20.9143 61.6722C20.718 61.2091 20.6199 60.7213 20.6199 60.1964C20.6199 59.6716 20.7241 59.1467 20.9265 58.6775C21.1289 58.2144 21.4049 57.813 21.7484 57.4734C22.0918 57.1338 22.4844 56.8745 22.9321 56.6831C23.3798 56.4978 23.8459 56.4052 24.3243 56.4052H24.7598C25.2504 56.4052 25.7165 56.504 26.152 56.7078C26.5875 56.9115 26.9677 57.1832 27.2989 57.529C27.624 57.8748 27.8816 58.2761 28.0717 58.733C28.2618 59.1961 28.3599 59.6839 28.3599 60.1964C28.3599 60.7089 28.2679 61.172 28.0901 61.6289C27.9122 62.092 27.6608 62.4934 27.3357 62.8392C27.0168 63.1911 26.6365 63.469 26.2011 63.6789C25.7656 63.8889 25.2872 64 24.7782 64H24.3243H24.3304ZM24.3611 58.0415C24.0667 58.0415 23.7969 58.0971 23.5393 58.2144C23.2817 58.3317 23.0609 58.4861 22.8708 58.6836C22.6806 58.8812 22.5273 59.1097 22.4169 59.369C22.3065 59.6284 22.2513 59.9062 22.2513 60.1964C22.2513 60.4866 22.3065 60.7707 22.4169 61.03C22.5273 61.2955 22.6745 61.524 22.8708 61.7216C23.0609 61.9191 23.2878 62.0735 23.5393 62.1908C23.7969 62.3082 24.0667 62.3637 24.3611 62.3637H24.723C25.0051 62.3637 25.2688 62.3082 25.5141 62.1908C25.7595 62.0735 25.9741 61.9191 26.152 61.7216C26.3299 61.524 26.4771 61.2955 26.5813 61.03C26.6856 60.7645 26.7408 60.4866 26.7408 60.1964C26.7408 59.9062 26.6856 59.6407 26.5813 59.3876C26.4771 59.1344 26.3299 58.8998 26.1459 58.7022C25.9619 58.5046 25.7472 58.344 25.4957 58.2267C25.2504 58.1032 24.9928 58.0415 24.723 58.0415H24.3611Z" fill="#F0F0F0"/>
<path d="M32.8126 63.8765C32.3097 63.8765 31.8375 63.7777 31.3897 63.5863C30.942 63.3949 30.5556 63.1294 30.2244 62.7959C29.8932 62.4625 29.6295 62.0673 29.4394 61.6228C29.2493 61.172 29.1511 60.6966 29.1511 60.1903C29.1511 59.6839 29.2493 59.2085 29.4394 58.7639C29.6295 58.3193 29.8932 57.9303 30.2244 57.5969C30.5556 57.2635 30.9481 56.998 31.3897 56.8066C31.8375 56.6151 32.3097 56.5164 32.8126 56.5164H34.4257C34.4257 56.5164 34.4134 56.4423 34.4195 56.2879C34.4257 56.1335 34.4257 55.9668 34.4257 55.7877V55.0468C34.4257 54.8245 34.4686 54.6269 34.5606 54.4479C34.6526 54.2688 34.7691 54.1206 34.9224 54.0033C35.0758 53.8798 35.2475 53.7872 35.4438 53.7316C35.64 53.6698 35.8424 53.639 36.0509 53.639V63.8765H32.8126ZM34.4257 58.1588H32.8126C32.5305 58.1588 32.2668 58.2144 32.0215 58.3193C31.7761 58.4243 31.5615 58.5725 31.3713 58.7516C31.1873 58.9306 31.0401 59.1467 30.9359 59.3937C30.8316 59.6407 30.7764 59.9062 30.7764 60.1903C30.7764 60.4743 30.8316 60.7398 30.9359 60.9868C31.0401 61.2338 31.1873 61.4499 31.3713 61.6413C31.5553 61.8327 31.7761 61.9747 32.0215 62.0797C32.2668 62.1847 32.5305 62.2402 32.8126 62.2402H34.4257V58.1588Z" fill="#F0F0F0"/>
<path d="M37.5842 63.8765V53.6266C37.805 53.6266 38.0136 53.6637 38.2098 53.7316C38.4061 53.8057 38.5778 53.9045 38.7311 54.0342C38.8783 54.1638 39.001 54.3244 39.0869 54.5096C39.1727 54.6948 39.2157 54.9048 39.2157 55.1394V63.8765H37.5904H37.5842Z" fill="#F0F0F0"/>
<path d="M47.244 62.3699C47.152 62.7527 47.0048 63.0491 46.7963 63.2714C46.5878 63.4937 46.3241 63.6542 46.0051 63.7407C45.6862 63.8333 45.2998 63.8765 44.846 63.8765H42.589C42.4479 63.8765 42.2516 63.8456 42.0063 63.7839C41.761 63.7221 41.5156 63.611 41.2826 63.4443C41.0434 63.2776 40.841 63.0491 40.6631 62.7527C40.4853 62.4563 40.3994 62.0797 40.3994 61.6166C40.3994 61.3017 40.4546 61.0177 40.565 60.7521C40.6754 60.4866 40.8287 60.2582 41.025 60.0668C41.2213 59.8753 41.4543 59.7272 41.718 59.616C41.9818 59.5049 42.2762 59.4555 42.5828 59.4555H45.6433C45.6433 59.1035 45.5697 58.8318 45.4225 58.6528C45.2753 58.4675 45.1036 58.344 44.9012 58.2638C44.6988 58.1897 44.4964 58.1465 44.294 58.1465H42.4172C42.1474 58.1465 41.9143 58.0971 41.7242 58.0044C41.534 57.9056 41.3746 57.7821 41.2397 57.6216C41.1109 57.4672 41.0127 57.2882 40.9514 57.0906C40.8901 56.893 40.8594 56.7016 40.8594 56.504H44.0855C44.6681 56.504 45.1649 56.5657 45.5819 56.6892C45.999 56.8127 46.3425 57.0103 46.6062 57.2882C46.8699 57.566 47.0662 57.9303 47.1888 58.3811C47.3115 58.8318 47.3667 59.3814 47.3667 60.0235V60.9065C47.3667 61.4931 47.3238 61.9747 47.2318 62.3514L47.244 62.3699ZM42.6012 60.9065C42.3988 60.9065 42.2516 60.9806 42.1535 61.1288C42.0554 61.277 42.0063 61.4375 42.0063 61.6042C42.0063 61.7648 42.0554 61.9191 42.1535 62.0673C42.2516 62.2155 42.4111 62.2896 42.6319 62.2896H44.9748C45.2262 62.2896 45.4041 62.2217 45.5145 62.0859C45.6249 61.95 45.6801 61.7648 45.6801 61.5301V60.9065H42.6012Z" fill="#F0F0F0"/>
<path d="M53.8616 63.469C53.5427 63.1973 53.3894 62.8206 53.3894 62.3452V59.7086C53.3894 59.4987 53.3464 59.2949 53.2667 59.1097C53.187 58.9245 53.0766 58.7577 52.9416 58.6157C52.8067 58.4737 52.6472 58.3626 52.4694 58.2823C52.2915 58.202 52.0953 58.1588 51.8806 58.1588C51.6659 58.1588 51.4697 58.202 51.2857 58.2823C51.1017 58.3626 50.9361 58.4737 50.7889 58.6157C50.6417 58.7577 50.5313 58.9245 50.4516 59.1097C50.3718 59.2949 50.3289 59.4987 50.3289 59.7086V63.8765H48.7036V59.7086C48.7036 59.2764 48.7895 58.8627 48.9551 58.4737C49.1207 58.0847 49.3476 57.7451 49.642 57.4549C49.9364 57.1647 50.2676 56.9362 50.654 56.7695C51.0342 56.6028 51.4451 56.5164 51.8867 56.5164C52.3283 56.5164 52.727 56.6028 53.1072 56.7695C53.4875 56.9362 53.8187 57.1647 54.1008 57.4549C54.3829 57.7451 54.6037 58.0847 54.7693 58.4737C54.9349 58.8627 55.0208 59.2764 55.0208 59.7086V63.8765C54.5669 63.8765 54.1867 63.7407 53.8677 63.469H53.8616Z" fill="#F0F0F0"/>
<path d="M59.7555 63.8765C59.2526 63.8765 58.7803 63.7777 58.3326 63.5863C57.8849 63.3949 57.4985 63.1294 57.1673 62.7959C56.8361 62.4625 56.5724 62.0673 56.3823 61.6228C56.1921 61.172 56.094 60.6966 56.094 60.1903C56.094 59.6839 56.1921 59.2085 56.3823 58.7639C56.5724 58.3193 56.8361 57.9303 57.1673 57.5969C57.4985 57.2635 57.891 56.998 58.3326 56.8066C58.7803 56.6151 59.2526 56.5164 59.7555 56.5164H61.3685C61.3685 56.5164 61.3563 56.4423 61.3624 56.2879C61.3685 56.1335 61.3685 55.9668 61.3685 55.7877V55.0468C61.3685 54.8245 61.4115 54.6269 61.5035 54.4479C61.5955 54.2688 61.712 54.1206 61.8653 54.0033C62.0186 53.8798 62.1904 53.7872 62.3866 53.7316C62.5829 53.6698 62.7853 53.639 62.9938 53.639V63.8765H59.7555ZM61.3685 58.1588H59.7555C59.4734 58.1588 59.2096 58.2144 58.9643 58.3193C58.719 58.4243 58.5043 58.5725 58.3142 58.7516C58.1302 58.9306 57.983 59.1467 57.8788 59.3937C57.7745 59.6407 57.7193 59.9062 57.7193 60.1903C57.7193 60.4743 57.7745 60.7398 57.8788 60.9868C57.983 61.2338 58.1302 61.4499 58.3142 61.6413C58.4982 61.8327 58.719 61.9747 58.9643 62.0797C59.2096 62.1847 59.4734 62.2402 59.7555 62.2402H61.3685V58.1588Z" fill="#F0F0F0"/>
</g>
<defs>
<clipPath id="clip0_8_4581">
<rect width="63" height="64" fill="white"/>
</clipPath>
</defs>
</svg>
